# xmcd
# Track frame offsets:
# 150
# 13048
# 27662
# 41010
# 54399
# 74497
# 89385
# 100287
# 113648
# 131673
# 148524
# 162887
#
# Disc length: 2344 seconds
# Revision: 2
# Processed by: cddbd v1.5.2PL0 Copyright (c) Steve Scherf et al.
# Submitted via: VisiTrax 2.11.3.279 - For more info visit www.synapsa.com
#
DISCID=a509260c
DTITLE=Slim Dusty - Spirit Of Australia
DYEAR=1979
DGENRE=Australian Country
TTITLE0=Spirit Of Australia Dedicated To Ken Warby
TTITLE1=Nineteen Eighties Bushman On The Move
TTITLE2=Old Ivenhoe
TTITLE3=Joe Maguire's Pub
TTITLE4=Droving By Train
TTITLE5=While The Damper Cooks
TTITLE6=Give It A Go, Mate
TTITLE7=Harry The Breaker
TTITLE8=Mountain Man's Girl
TTITLE9=Family Of Man
TTITLE10=Westward Ho!
TTITLE11=Losin' My Blues Tonight
EXTD=1979 EMI Music Australia 1996 EMI Music Australia
EXTT0=
EXTT1=
EXTT2=
EXTT3=
EXTT4=
EXTT5=
EXTT6=
EXTT7=
EXTT8=
EXTT9=
EXTT10=
EXTT11=
PLAYORDER=
